<svg width="124" height="50" viewBox="0 0 124 50" fill="none" xmlns="http://www.w3.org/2000/svg">
<circle cx="25" cy="25" r="25" fill="#03AEFD"/>
<g clip-path="url(#clip0_8_2)">
<path d="M36.715 22.165L25.465 13.165C25.332 13.0585 25.1667 13.0005 24.9963 13.0005C24.8258 13.0005 24.6605 13.0585 24.5275 13.165L13.2775 22.165C13.1561 22.2624 13.0681 22.3951 13.0255 22.5447C12.9829 22.6944 12.9879 22.8536 13.0398 23.0002C13.0917 23.1469 13.188 23.2738 13.3152 23.3634C13.4425 23.4529 13.5944 23.5006 13.75 23.5H15.25V36.25C15.25 36.4489 15.329 36.6397 15.4697 36.7803C15.6103 36.921 15.8011 37 16 37H31V35.5H28V28.75C28 28.5511 27.921 28.3603 27.7803 28.2197C27.6397 28.079 27.4489 28 27.25 28H22.75C22.5511 28 22.3603 28.079 22.2197 28.2197C22.079 28.3603 22 28.5511 22 28.75V35.5H16.75V23.5H29.5V22H15.8875L25 14.71L34.1125 22H34C33.8011 22 33.6103 22.079 33.4697 22.2197C33.329 22.3603 33.25 22.5511 33.25 22.75V27.25H34.75V23.5H36.25C36.405 23.4991 36.5558 23.4502 36.6819 23.3601C36.8079 23.27 36.903 23.143 36.9539 22.9967C37.0049 22.8504 37.0093 22.6918 36.9665 22.5429C36.9237 22.394 36.8359 22.262 36.715 22.165ZM23.5 29.5H26.5V35.5H23.5V29.5Z" fill="white"/>
<path d="M31.75 32.9425L30.7825 31.975L29.725 33.0325L31.225 34.5325C31.3655 34.6722 31.5556 34.7506 31.7538 34.7506C31.9519 34.7506 32.142 34.6722 32.2825 34.5325L36.7825 30.0325L35.725 28.975L31.75 32.9425Z" fill="white"/>
</g>
<path d="M66.78 22.38C66.78 23.64 66.08 24.46 64.52 24.46H62.18V20.36H64.52C66.08 20.36 66.78 21.14 66.78 22.38ZM59.38 18.04V32H62.18V26.56H63.5L66.58 32H69.82L66.48 26.34C68.72 25.74 69.66 24.02 69.66 22.32C69.66 19.98 67.98 18.04 64.62 18.04H59.38ZM76.9525 23.04C78.3925 23.04 79.5525 23.96 79.5925 25.42H74.3325C74.5525 23.9 75.6125 23.04 76.9525 23.04ZM82.2125 28.52H79.1925C78.8325 29.26 78.1725 29.86 76.9725 29.86C75.5725 29.86 74.4525 28.94 74.3125 27.3H82.4125C82.4725 26.94 82.4925 26.58 82.4925 26.22C82.4925 22.92 80.2325 20.74 77.0325 20.74C73.7525 20.74 71.4725 22.96 71.4725 26.46C71.4725 29.94 73.8125 32.18 77.0325 32.18C79.7725 32.18 81.6125 30.56 82.2125 28.52ZM91.9763 20.92H83.9363V23.22H88.7563L83.9163 29.74V32H92.0363V29.7H87.0963L91.9763 23.18V20.92ZM94.2042 32H97.0042V20.92H94.2042V32ZM95.6242 19.6C96.6042 19.6 97.3442 18.88 97.3442 17.96C97.3442 17.04 96.6042 16.32 95.6242 16.32C94.6242 16.32 93.9042 17.04 93.9042 17.96C93.9042 18.88 94.6242 19.6 95.6242 19.6ZM99.7706 32H102.571V17.2H99.7706V32ZM105.337 32H108.137V17.2H105.337V32ZM110.183 26.42C110.183 29.88 112.423 32.18 115.223 32.18C116.983 32.18 118.243 31.34 118.903 30.38V32H121.723V20.92H118.903V22.5C118.243 21.58 117.023 20.74 115.243 20.74C112.423 20.74 110.183 22.96 110.183 26.42ZM118.903 26.46C118.903 28.56 117.503 29.72 115.963 29.72C114.463 29.72 113.043 28.52 113.043 26.42C113.043 24.32 114.463 23.2 115.963 23.2C117.503 23.2 118.903 24.36 118.903 26.46Z" fill="#1E1E1E"/>
<defs>
<clipPath id="clip0_8_2">
<rect width="24" height="24" fill="white" transform="translate(13 13)"/>
</clipPath>
</defs>
</svg>
